<?xml version="1.0" encoding="UTF-8"?>
<svg xmlns="http://www.w3.org/2000/svg" xmlns:xlink="http://www.w3.org/1999/xlink" width="200px" height="200px" viewBox="0 0 200 200" version="1.1">
<defs>
<clipPath id="clip1">
  <path d="M 131.320312 36 L 150.933594 36 L 150.933594 51.199219 L 131.320312 51.199219 Z M 131.320312 36 "/>
</clipPath>
<clipPath id="clip2">
  <path d="M 149.867188 44.800781 L 165.722656 44.800781 L 165.722656 61.332031 L 149.867188 61.332031 Z M 149.867188 44.800781 "/>
</clipPath>
<clipPath id="clip3">
  <path d="M 98.308594 125.476562 L 101.691406 125.476562 L 101.691406 128.859375 L 98.308594 128.859375 Z M 98.308594 125.476562 "/>
</clipPath>
<clipPath id="clip4">
  <path d="M 100 125.476562 C 99.066406 125.476562 98.308594 126.230469 98.308594 127.167969 C 98.308594 128.101562 99.066406 128.859375 100 128.859375 C 100.933594 128.859375 101.691406 128.101562 101.691406 127.167969 C 101.691406 126.230469 100.933594 125.476562 100 125.476562 Z M 100 125.476562 "/>
</clipPath>
</defs>
<g id="surface1">
<rect x="0" y="0" width="200" height="200" style="fill:rgb(100%,100%,100%);fill-opacity:1;stroke:none;"/>
<g clip-path="url(#clip1)" clip-rule="nonzero">
<path style=" stroke:none;fill-rule:nonzero;fill:rgb(0%,0%,0%);fill-opacity:1;" d="M 148.722656 40.71875 C 148.566406 40.378906 148.210938 39.894531 147.949219 39.410156 C 147.320312 38.257812 147.84375 37.09375 148.972656 36.988281 C 149.820312 36.910156 150.660156 37.761719 150.1875 39.175781 C 150.082031 39.488281 150.265625 39.617188 150.460938 39.359375 C 151.585938 37.773438 150.277344 36.046875 148.917969 36.191406 C 147.554688 36.335938 146.550781 38.246094 147.425781 39.816406 C 147.648438 40.234375 147.933594 40.667969 148.160156 41.148438 C 151.546875 48.832031 134.734375 42.5625 131.527344 50.636719 C 131.320312 51.144531 131.949219 51.328125 132.394531 50.820312 C 136.894531 45.453125 144.324219 48.515625 148.734375 45.113281 C 148.882812 44.996094 149.011719 44.859375 149.128906 44.707031 L 149.324219 44.410156 C 149.871094 43.308594 149.257812 41.921875 148.722656 40.71875 Z M 148.722656 40.71875 "/>
</g>
<g clip-path="url(#clip2)" clip-rule="nonzero">
<path style=" stroke:none;fill-rule:nonzero;fill:rgb(0%,0%,0%);fill-opacity:1;" d="M 165.675781 58.996094 C 165.296875 56.980469 163.140625 55.648438 161.582031 54.484375 C 159.175781 52.769531 156.558594 50.910156 154.085938 48.804688 C 152.613281 47.566406 151.21875 46.242188 149.898438 44.839844 C 149.898438 44.851562 149.898438 45.953125 151.925781 48.28125 C 153.71875 50.308594 156.492188 52.664062 158.964844 54.574219 C 161.441406 56.484375 163.597656 58.042969 164.160156 59.691406 C 164.304688 60.109375 164.183594 60.90625 164.527344 61.117188 C 164.867188 61.324219 165.152344 61.039062 165.390625 60.722656 C 165.785156 60.1875 165.769531 59.492188 165.675781 58.996094 Z M 165.675781 58.996094 "/>
</g>
<path style=" stroke:none;fill-rule:nonzero;fill:rgb(0%,0%,0%);fill-opacity:1;" d="M 163.441406 91.023438 C 153.824219 120.148438 160.222656 89.011719 138.554688 89.050781 C 138.703125 87.738281 139.023438 86.472656 139.515625 85.25 C 140.007812 84.027344 140.648438 82.890625 141.445312 81.839844 C 142.464844 80.507812 143.722656 79.367188 144.730469 78.019531 C 149.113281 72.078125 141.210938 64.765625 138.542969 59.820312 C 138.109375 59.011719 137.691406 58.171875 137.585938 57.269531 C 137.261719 54.417969 140.398438 52.757812 142.847656 53.03125 C 146.027344 53.382812 148.539062 55.683594 149.507812 58.683594 C 149.898438 59.898438 150.277344 61.519531 150.054688 62.828125 C 150.417969 62.046875 150.675781 61.230469 150.839844 60.382812 C 151.234375 58.183594 153.40625 56.746094 155.539062 57.359375 C 156.976562 57.777344 158.011719 58.800781 157.816406 60.476562 C 157.683594 61.585938 157.015625 62.699219 156.335938 63.851562 C 154.007812 67.734375 153.851562 70.273438 156.886719 73.859375 C 159.921875 77.445312 163.609375 81.355469 163.78125 86.601562 C 163.804688 88.085938 163.695312 89.5625 163.441406 91.023438 Z M 163.441406 91.023438 "/>
<path style="fill:none;stroke-width:1;stroke-linecap:butt;stroke-linejoin:miter;stroke:rgb(0%,0%,0%);stroke-opacity:1;stroke-miterlimit:4;" d="M 0.00223729 0.505072 L 244.494425 0.505072 " transform="matrix(0.4,0,0,0.4,49.409261,125.274534)"/>
<g clip-path="url(#clip3)" clip-rule="nonzero">
<g clip-path="url(#clip4)" clip-rule="nonzero">
<path style=" stroke:none;fill-rule:nonzero;fill:rgb(0%,0%,0%);fill-opacity:1;" d="M 98.308594 125.476562 L 101.691406 125.476562 L 101.691406 128.859375 L 98.308594 128.859375 Z M 98.308594 125.476562 "/>
</g>
</g>
<path style=" stroke:none;fill-rule:nonzero;fill:rgb(0%,0%,0%);fill-opacity:1;" d="M 55.339844 102.441406 L 55.339844 103.882812 C 54.625 104.097656 53.738281 104.199219 52.679688 104.199219 C 52.128906 104.199219 51.648438 104.1875 51.238281 104.160156 C 50.824219 104.132812 50.488281 104.097656 50.222656 104.058594 L 50.222656 92.023438 C 50.570312 91.949219 51.003906 91.886719 51.519531 91.839844 C 52.039062 91.792969 52.570312 91.765625 53.121094 91.765625 C 54.007812 91.765625 54.742188 91.859375 55.320312 92.042969 L 55.320312 93.574219 C 55.082031 93.363281 54.78125 93.210938 54.421875 93.117188 C 54.066406 93.023438 53.664062 92.976562 53.222656 92.976562 C 52.859375 92.976562 52.566406 92.988281 52.347656 93.015625 C 52.128906 93.039062 51.953125 93.066406 51.820312 93.089844 L 51.820312 96.226562 L 53.261719 96.226562 C 53.722656 96.226562 54.128906 96.164062 54.480469 96.042969 C 54.828125 95.921875 55.117188 95.757812 55.347656 95.550781 L 55.347656 97.976562 C 55.0625 97.789062 54.730469 97.648438 54.355469 97.566406 C 53.976562 97.480469 53.574219 97.433594 53.144531 97.433594 L 51.839844 97.433594 L 51.839844 102.875 C 52 102.910156 52.191406 102.929688 52.414062 102.941406 C 52.632812 102.949219 52.886719 102.949219 53.171875 102.949219 C 53.589844 102.949219 53.980469 102.914062 54.355469 102.832031 C 54.730469 102.75 55.058594 102.621094 55.339844 102.441406 Z M 55.339844 102.441406 "/>
<path style=" stroke:none;fill-rule:nonzero;fill:rgb(0%,0%,0%);fill-opacity:1;" d="M 58.003906 97.191406 C 58.003906 97.496094 58.140625 97.773438 58.414062 98.023438 C 58.6875 98.273438 59.015625 98.511719 59.394531 98.734375 C 59.765625 98.941406 60.136719 99.171875 60.503906 99.425781 C 60.875 99.679688 61.1875 99.988281 61.4375 100.339844 C 61.6875 100.699219 61.8125 101.140625 61.8125 101.675781 C 61.8125 102.148438 61.699219 102.574219 61.46875 102.957031 C 61.242188 103.339844 60.925781 103.644531 60.519531 103.867188 C 60.113281 104.089844 59.644531 104.199219 59.113281 104.199219 C 58.667969 104.199219 58.246094 104.148438 57.84375 104.042969 C 57.449219 103.9375 57.09375 103.78125 56.777344 103.574219 L 56.777344 101.191406 C 56.90625 101.515625 57.089844 101.8125 57.328125 102.082031 C 57.574219 102.351562 57.851562 102.566406 58.164062 102.734375 C 58.472656 102.894531 58.78125 102.976562 59.09375 102.976562 C 59.4375 102.976562 59.730469 102.886719 59.960938 102.707031 C 60.199219 102.53125 60.320312 102.25 60.320312 101.867188 C 60.320312 101.640625 60.238281 101.429688 60.078125 101.242188 C 59.917969 101.054688 59.707031 100.871094 59.445312 100.699219 C 59.183594 100.523438 58.90625 100.347656 58.613281 100.167969 C 58.28125 99.957031 57.960938 99.726562 57.644531 99.476562 C 57.328125 99.226562 57.066406 98.921875 56.863281 98.558594 C 56.65625 98.199219 56.554688 97.765625 56.554688 97.265625 C 56.554688 96.796875 56.671875 96.382812 56.902344 96.023438 C 57.136719 95.671875 57.457031 95.390625 57.871094 95.191406 C 58.28125 94.992188 58.753906 94.890625 59.289062 94.890625 C 59.703125 94.890625 60.074219 94.933594 60.402344 95.015625 C 60.738281 95.097656 61.039062 95.199219 61.3125 95.332031 L 61.3125 97.550781 C 61.132812 97.078125 60.859375 96.707031 60.488281 96.441406 C 60.121094 96.171875 59.71875 96.035156 59.289062 96.035156 C 58.871094 96.035156 58.550781 96.140625 58.328125 96.351562 C 58.113281 96.5625 58.003906 96.839844 58.003906 97.191406 Z M 58.003906 97.191406 "/>
<path style=" stroke:none;fill-rule:nonzero;fill:rgb(0%,0%,0%);fill-opacity:1;" d="M 64.496094 96.582031 L 64.496094 101.675781 C 64.496094 102.125 64.582031 102.453125 64.753906 102.660156 C 64.925781 102.863281 65.238281 102.964844 65.6875 102.964844 C 65.910156 102.964844 66.125 102.925781 66.335938 102.839844 C 66.546875 102.753906 66.730469 102.621094 66.886719 102.441406 L 66.886719 103.882812 C 66.675781 103.988281 66.429688 104.070312 66.144531 104.125 C 65.863281 104.175781 65.554688 104.199219 65.222656 104.199219 C 64.480469 104.199219 63.90625 103.972656 63.496094 103.515625 C 63.082031 103.0625 62.878906 102.449219 62.878906 101.675781 L 62.878906 93.742188 C 63.164062 93.636719 63.445312 93.546875 63.730469 93.464844 C 64.011719 93.382812 64.265625 93.324219 64.496094 93.292969 L 64.496094 95.375 L 65.847656 95.375 C 66.21875 95.375 66.558594 95.332031 66.871094 95.25 L 66.871094 96.839844 C 66.6875 96.804688 66.5 96.75 66.3125 96.683594 C 66.125 96.617188 65.929688 96.582031 65.730469 96.582031 Z M 64.496094 96.582031 "/>
<path style=" stroke:none;fill-rule:nonzero;fill:rgb(0%,0%,0%);fill-opacity:1;" d="M 69.992188 95.109375 L 69.992188 104.199219 C 69.671875 104.183594 69.367188 104.164062 69.085938 104.140625 C 68.800781 104.113281 68.5625 104.085938 68.375 104.058594 L 68.375 95.308594 C 68.582031 95.257812 68.828125 95.214844 69.109375 95.183594 C 69.398438 95.148438 69.691406 95.125 69.992188 95.109375 Z M 69.992188 91.765625 L 69.992188 93.417969 C 69.671875 93.394531 69.367188 93.375 69.085938 93.359375 C 68.800781 93.339844 68.5625 93.316406 68.375 93.273438 L 68.375 91.949219 C 68.582031 91.90625 68.828125 91.871094 69.117188 91.839844 C 69.40625 91.816406 69.695312 91.789062 69.992188 91.765625 Z M 69.992188 91.765625 "/>
<path style=" stroke:none;fill-rule:nonzero;fill:rgb(0%,0%,0%);fill-opacity:1;" d="M 73.578125 91.765625 L 73.578125 102.101562 C 73.578125 102.398438 73.621094 102.609375 73.710938 102.726562 C 73.796875 102.835938 73.960938 102.890625 74.203125 102.890625 C 74.3125 102.890625 74.445312 102.859375 74.59375 102.792969 C 74.746094 102.726562 74.871094 102.609375 74.96875 102.441406 L 74.96875 103.882812 C 74.820312 103.988281 74.636719 104.070312 74.417969 104.125 C 74.207031 104.175781 73.980469 104.199219 73.734375 104.199219 C 73.164062 104.199219 72.726562 104.011719 72.425781 103.632812 C 72.132812 103.257812 71.984375 102.746094 71.984375 102.101562 L 71.984375 91.910156 C 72.171875 91.882812 72.402344 91.855469 72.667969 91.824219 C 72.9375 91.796875 73.242188 91.777344 73.578125 91.765625 Z M 73.578125 91.765625 "/>
<path style=" stroke:none;fill-rule:nonzero;fill:rgb(0%,0%,0%);fill-opacity:1;" d="M 78.71875 94.890625 C 79.496094 94.890625 80.128906 95.109375 80.625 95.542969 C 81.125 95.972656 81.496094 96.570312 81.742188 97.339844 C 81.992188 98.113281 82.117188 99.015625 82.117188 100.050781 C 82.117188 100.546875 82.050781 101.039062 81.925781 101.523438 C 81.800781 102.007812 81.613281 102.453125 81.359375 102.859375 C 81.101562 103.257812 80.777344 103.582031 80.375 103.832031 C 79.980469 104.078125 79.507812 104.199219 78.957031 104.199219 C 78.125 104.199219 77.453125 103.988281 76.949219 103.566406 C 76.449219 103.140625 76.089844 102.539062 75.867188 101.765625 C 75.644531 100.996094 75.535156 100.085938 75.535156 99.042969 C 75.535156 98.546875 75.59375 98.054688 75.71875 97.566406 C 75.839844 97.074219 76.03125 96.625 76.292969 96.226562 C 76.550781 95.820312 76.882812 95.496094 77.285156 95.257812 C 77.6875 95.015625 78.167969 94.890625 78.71875 94.890625 Z M 78.917969 103.035156 C 79.226562 103.035156 79.484375 102.929688 79.683594 102.726562 C 79.882812 102.515625 80.039062 102.246094 80.152344 101.925781 C 80.265625 101.605469 80.34375 101.273438 80.382812 100.941406 C 80.425781 100.605469 80.449219 100.304688 80.449219 100.050781 C 80.449219 99.578125 80.421875 99.109375 80.367188 98.640625 C 80.3125 98.171875 80.21875 97.738281 80.082031 97.351562 C 79.949219 96.960938 79.769531 96.648438 79.550781 96.417969 C 79.332031 96.179688 79.0625 96.058594 78.734375 96.058594 C 78.421875 96.058594 78.167969 96.164062 77.96875 96.375 C 77.765625 96.582031 77.609375 96.847656 77.492188 97.167969 C 77.378906 97.488281 77.300781 97.820312 77.257812 98.160156 C 77.21875 98.492188 77.199219 98.789062 77.199219 99.042969 C 77.199219 99.515625 77.226562 99.988281 77.285156 100.457031 C 77.339844 100.925781 77.433594 101.355469 77.566406 101.742188 C 77.699219 102.132812 77.878906 102.445312 78.101562 102.683594 C 78.320312 102.917969 78.59375 103.035156 78.917969 103.035156 Z M 78.917969 103.035156 "/>
<path style=" stroke:none;fill-rule:nonzero;fill:rgb(0%,0%,0%);fill-opacity:1;" d="M 91.421875 102.441406 L 91.421875 103.882812 C 90.710938 104.097656 89.824219 104.199219 88.761719 104.199219 C 88.214844 104.199219 87.730469 104.1875 87.320312 104.160156 C 86.910156 104.132812 86.570312 104.097656 86.304688 104.058594 L 86.304688 92.023438 C 86.65625 91.949219 87.089844 91.886719 87.605469 91.839844 C 88.121094 91.792969 88.65625 91.765625 89.203125 91.765625 C 90.09375 91.765625 90.824219 91.859375 91.40625 92.042969 L 91.40625 93.574219 C 91.164062 93.363281 90.867188 93.210938 90.503906 93.117188 C 90.148438 93.023438 89.75 92.976562 89.304688 92.976562 C 88.941406 92.976562 88.652344 92.988281 88.429688 93.015625 C 88.214844 93.039062 88.039062 93.066406 87.90625 93.089844 L 87.90625 96.226562 L 89.347656 96.226562 C 89.808594 96.226562 90.214844 96.164062 90.5625 96.042969 C 90.914062 95.921875 91.199219 95.757812 91.429688 95.550781 L 91.429688 97.976562 C 91.148438 97.789062 90.816406 97.648438 90.4375 97.566406 C 90.058594 97.480469 89.65625 97.433594 89.230469 97.433594 L 87.921875 97.433594 L 87.921875 102.875 C 88.082031 102.910156 88.273438 102.929688 88.496094 102.941406 C 88.71875 102.949219 88.972656 102.949219 89.253906 102.949219 C 89.671875 102.949219 90.066406 102.914062 90.4375 102.832031 C 90.816406 102.75 91.140625 102.621094 91.421875 102.441406 Z M 91.421875 102.441406 "/>
<path style=" stroke:none;fill-rule:nonzero;fill:rgb(0%,0%,0%);fill-opacity:1;" d="M 94.085938 97.191406 C 94.085938 97.496094 94.222656 97.773438 94.496094 98.023438 C 94.773438 98.273438 95.101562 98.511719 95.480469 98.734375 C 95.851562 98.941406 96.222656 99.171875 96.585938 99.425781 C 96.957031 99.679688 97.269531 99.988281 97.519531 100.339844 C 97.769531 100.699219 97.894531 101.140625 97.894531 101.675781 C 97.894531 102.148438 97.78125 102.574219 97.554688 102.957031 C 97.324219 103.339844 97.007812 103.644531 96.605469 103.867188 C 96.199219 104.089844 95.730469 104.199219 95.195312 104.199219 C 94.75 104.199219 94.328125 104.148438 93.929688 104.042969 C 93.535156 103.9375 93.179688 103.78125 92.863281 103.574219 L 92.863281 101.191406 C 92.988281 101.515625 93.171875 101.8125 93.414062 102.082031 C 93.65625 102.351562 93.933594 102.566406 94.246094 102.734375 C 94.554688 102.894531 94.867188 102.976562 95.179688 102.976562 C 95.523438 102.976562 95.8125 102.886719 96.046875 102.707031 C 96.285156 102.53125 96.40625 102.25 96.40625 101.867188 C 96.40625 101.640625 96.324219 101.429688 96.164062 101.242188 C 96 101.054688 95.789062 100.871094 95.53125 100.699219 C 95.265625 100.523438 94.988281 100.347656 94.695312 100.167969 C 94.367188 99.957031 94.046875 99.726562 93.730469 99.476562 C 93.414062 99.226562 93.148438 98.921875 92.945312 98.558594 C 92.738281 98.199219 92.636719 97.765625 92.636719 97.265625 C 92.636719 96.796875 92.753906 96.382812 92.988281 96.023438 C 93.222656 95.671875 93.542969 95.390625 93.953125 95.191406 C 94.363281 94.992188 94.835938 94.890625 95.371094 94.890625 C 95.789062 94.890625 96.160156 94.933594 96.488281 95.015625 C 96.820312 95.097656 97.125 95.199219 97.394531 95.332031 L 97.394531 97.550781 C 97.21875 97.078125 96.941406 96.707031 96.570312 96.441406 C 96.203125 96.171875 95.804688 96.035156 95.371094 96.035156 C 94.953125 96.035156 94.632812 96.140625 94.414062 96.351562 C 94.195312 96.5625 94.085938 96.839844 94.085938 97.191406 Z M 94.085938 97.191406 "/>
<path style=" stroke:none;fill-rule:nonzero;fill:rgb(0%,0%,0%);fill-opacity:1;" d="M 109.472656 98.089844 L 109.472656 104.199219 C 109.15625 104.183594 108.851562 104.164062 108.5625 104.140625 C 108.28125 104.113281 108.042969 104.085938 107.855469 104.058594 L 107.855469 98.089844 C 107.855469 97.53125 107.746094 97.058594 107.53125 96.675781 C 107.3125 96.292969 106.964844 96.101562 106.480469 96.101562 C 106.222656 96.101562 105.992188 96.210938 105.789062 96.433594 C 105.582031 96.648438 105.417969 96.929688 105.296875 97.273438 C 105.171875 97.621094 105.113281 97.988281 105.113281 98.375 L 105.113281 104.199219 C 104.789062 104.183594 104.488281 104.164062 104.203125 104.140625 C 103.921875 104.113281 103.683594 104.085938 103.496094 104.058594 L 103.496094 98.089844 C 103.496094 97.382812 103.382812 96.871094 103.164062 96.566406 C 102.945312 96.257812 102.597656 96.101562 102.113281 96.101562 C 101.855469 96.101562 101.625 96.210938 101.421875 96.433594 C 101.222656 96.648438 101.058594 96.929688 100.9375 97.273438 C 100.816406 97.621094 100.753906 97.988281 100.753906 98.375 L 100.753906 104.199219 C 100.433594 104.183594 100.125 104.164062 99.839844 104.140625 C 99.554688 104.113281 99.316406 104.085938 99.128906 104.058594 L 99.128906 96.882812 C 99.140625 96.523438 99.117188 96.183594 99.054688 95.867188 C 99 95.550781 98.921875 95.296875 98.820312 95.109375 L 100.511719 95.109375 C 100.511719 95.109375 100.53125 95.179688 100.5625 95.316406 C 100.597656 95.449219 100.628906 95.613281 100.664062 95.800781 C 100.699219 95.988281 100.726562 96.175781 100.738281 96.359375 L 100.855469 96.359375 C 100.976562 95.886719 101.203125 95.523438 101.539062 95.273438 C 101.875 95.019531 102.257812 94.890625 102.679688 94.890625 C 103.296875 94.890625 103.78125 95.074219 104.128906 95.433594 C 104.480469 95.796875 104.707031 96.289062 104.8125 96.910156 L 104.914062 96.910156 C 105.03125 96.339844 105.265625 95.863281 105.621094 95.476562 C 105.980469 95.085938 106.457031 94.890625 107.046875 94.890625 C 107.8125 94.890625 108.40625 95.171875 108.828125 95.734375 C 109.257812 96.289062 109.472656 97.074219 109.472656 98.089844 Z M 109.472656 98.089844 "/>
<path style=" stroke:none;fill-rule:nonzero;fill:rgb(0%,0%,0%);fill-opacity:1;" d="M 115.941406 102.441406 L 115.941406 103.882812 C 115.703125 103.984375 115.480469 104.0625 115.277344 104.117188 C 115.074219 104.171875 114.835938 104.199219 114.558594 104.199219 C 114.074219 104.199219 113.601562 104.121094 113.140625 103.964844 C 112.6875 103.8125 112.269531 103.542969 111.890625 103.160156 C 111.519531 102.773438 111.226562 102.25 111.007812 101.582031 C 110.792969 100.914062 110.683594 100.066406 110.683594 99.042969 C 110.683594 98.226562 110.804688 97.507812 111.050781 96.890625 C 111.292969 96.269531 111.660156 95.78125 112.152344 95.425781 C 112.636719 95.070312 113.238281 94.890625 113.949219 94.890625 C 114.515625 94.890625 114.996094 95.019531 115.382812 95.273438 C 115.773438 95.53125 116.066406 95.863281 116.265625 96.265625 C 116.46875 96.667969 116.566406 97.089844 116.566406 97.535156 C 116.609375 98.398438 116.34375 99.070312 115.765625 99.542969 C 115.1875 100.015625 114.351562 100.25 113.25 100.25 C 113.089844 100.25 112.929688 100.246094 112.777344 100.242188 C 112.621094 100.230469 112.476562 100.207031 112.34375 100.175781 C 112.417969 100.765625 112.542969 101.242188 112.71875 101.609375 C 112.894531 101.972656 113.097656 102.25 113.324219 102.449219 C 113.554688 102.648438 113.785156 102.789062 114.027344 102.859375 C 114.269531 102.929688 114.496094 102.964844 114.699219 102.964844 C 114.929688 102.964844 115.128906 102.925781 115.308594 102.839844 C 115.492188 102.753906 115.703125 102.621094 115.941406 102.441406 Z M 113.808594 96.101562 C 113.363281 96.101562 112.996094 96.355469 112.710938 96.859375 C 112.417969 97.359375 112.277344 98.078125 112.277344 99.015625 L 113.25 99.015625 C 113.585938 99.015625 113.878906 98.988281 114.132812 98.925781 C 114.386719 98.863281 114.585938 98.730469 114.726562 98.515625 C 114.871094 98.304688 114.941406 97.980469 114.941406 97.535156 C 114.941406 97.082031 114.835938 96.734375 114.617188 96.484375 C 114.40625 96.230469 114.136719 96.101562 113.808594 96.101562 Z M 113.808594 96.101562 "/>
<path style=" stroke:none;fill-rule:nonzero;fill:rgb(0%,0%,0%);fill-opacity:1;" d="M 121.691406 95.214844 L 121.691406 96.667969 C 121.585938 96.597656 121.457031 96.519531 121.308594 96.441406 C 121.15625 96.363281 120.960938 96.324219 120.714844 96.324219 C 120.324219 96.324219 120.015625 96.476562 119.789062 96.773438 C 119.5625 97.074219 119.449219 97.523438 119.449219 98.117188 L 119.449219 104.199219 C 118.84375 104.164062 118.320312 104.097656 117.882812 104 L 117.882812 96.601562 C 117.890625 96.277344 117.867188 95.996094 117.808594 95.757812 C 117.75 95.515625 117.671875 95.296875 117.574219 95.109375 L 119.347656 95.109375 C 119.347656 95.109375 119.351562 95.179688 119.355469 95.316406 C 119.367188 95.449219 119.378906 95.613281 119.390625 95.800781 C 119.40625 95.988281 119.417969 96.175781 119.433594 96.359375 L 119.574219 96.359375 C 119.734375 95.855469 119.9375 95.484375 120.183594 95.25 C 120.433594 95.011719 120.699219 94.890625 120.980469 94.890625 C 121.167969 94.890625 121.324219 94.921875 121.449219 94.984375 C 121.570312 95.046875 121.652344 95.121094 121.691406 95.214844 Z M 121.691406 95.214844 "/>
<path style=" stroke:none;fill-rule:nonzero;fill:rgb(0%,0%,0%);fill-opacity:1;" d="M 127.957031 97.425781 L 127.957031 102.707031 C 127.945312 103.03125 127.96875 103.316406 128.023438 103.558594 C 128.085938 103.796875 128.167969 104.011719 128.265625 104.199219 L 126.492188 104.199219 C 126.492188 104.199219 126.484375 104.132812 126.476562 104 C 126.46875 103.863281 126.457031 103.695312 126.441406 103.5 C 126.429688 103.304688 126.417969 103.121094 126.40625 102.949219 L 126.308594 102.949219 C 126.007812 103.832031 125.382812 104.273438 124.433594 104.273438 C 124 104.273438 123.613281 104.160156 123.273438 103.925781 C 122.941406 103.691406 122.675781 103.375 122.484375 102.976562 C 122.292969 102.570312 122.199219 102.121094 122.199219 101.625 C 122.171875 101.046875 122.28125 100.511719 122.53125 100.015625 C 122.789062 99.515625 123.167969 99.113281 123.667969 98.808594 C 124.167969 98.503906 124.78125 98.351562 125.515625 98.351562 C 125.675781 98.351562 125.828125 98.359375 125.976562 98.375 C 126.117188 98.390625 126.253906 98.414062 126.382812 98.441406 L 126.382812 97.425781 C 126.382812 96.972656 126.285156 96.640625 126.089844 96.441406 C 125.902344 96.238281 125.550781 96.132812 125.042969 96.132812 C 124.636719 96.132812 124.253906 96.191406 123.898438 96.300781 C 123.542969 96.414062 123.242188 96.578125 123 96.800781 L 123 95.207031 C 123.359375 95.105469 123.738281 95.023438 124.132812 94.976562 C 124.53125 94.921875 124.992188 94.890625 125.515625 94.890625 C 126.300781 94.890625 126.902344 95.121094 127.324219 95.574219 C 127.746094 96.03125 127.957031 96.648438 127.957031 97.425781 Z M 126.382812 99.582031 L 125.515625 99.582031 C 125.019531 99.582031 124.617188 99.757812 124.300781 100.101562 C 123.984375 100.445312 123.824219 100.953125 123.824219 101.625 C 123.824219 102.082031 123.933594 102.4375 124.148438 102.691406 C 124.367188 102.941406 124.636719 103.066406 124.957031 103.066406 C 125.429688 103.066406 125.785156 102.90625 126.023438 102.582031 C 126.261719 102.261719 126.382812 101.800781 126.382812 101.199219 Z M 126.382812 99.582031 "/>
<path style=" stroke:none;fill-rule:nonzero;fill:rgb(0%,0%,0%);fill-opacity:1;" d="M 131.425781 91.765625 L 131.425781 102.101562 C 131.425781 102.398438 131.46875 102.609375 131.558594 102.726562 C 131.644531 102.835938 131.808594 102.890625 132.050781 102.890625 C 132.160156 102.890625 132.292969 102.859375 132.441406 102.792969 C 132.59375 102.726562 132.71875 102.609375 132.816406 102.441406 L 132.816406 103.882812 C 132.667969 103.988281 132.484375 104.070312 132.265625 104.125 C 132.054688 104.175781 131.828125 104.199219 131.582031 104.199219 C 131.011719 104.199219 130.574219 104.011719 130.273438 103.632812 C 129.980469 103.257812 129.832031 102.746094 129.832031 102.101562 L 129.832031 91.910156 C 130.019531 91.882812 130.25 91.855469 130.515625 91.824219 C 130.785156 91.796875 131.089844 91.777344 131.425781 91.765625 Z M 131.425781 91.765625 "/>
<path style=" stroke:none;fill-rule:nonzero;fill:rgb(0%,0%,0%);fill-opacity:1;" d="M 137.546875 96.257812 L 137.714844 96.257812 L 137.714844 91.964844 C 138.140625 91.882812 138.671875 91.816406 139.308594 91.765625 L 139.308594 103.734375 C 139.007812 103.800781 138.636719 103.894531 138.199219 104.015625 C 137.765625 104.140625 137.308594 104.199219 136.832031 104.199219 C 136.132812 104.199219 135.527344 104.035156 135.023438 103.699219 C 134.515625 103.363281 134.125 102.890625 133.839844 102.292969 C 133.558594 101.6875 133.402344 100.988281 133.382812 100.191406 L 133.382812 98.839844 C 133.382812 97.941406 133.5 97.203125 133.730469 96.625 C 133.964844 96.042969 134.257812 95.609375 134.613281 95.324219 C 134.976562 95.039062 135.335938 94.890625 135.699219 94.890625 C 136.125 94.890625 136.484375 94.996094 136.78125 95.199219 C 137.082031 95.40625 137.335938 95.757812 137.546875 96.257812 Z M 134.988281 98.839844 L 134.988281 100.191406 C 135.007812 101.054688 135.167969 101.734375 135.472656 102.234375 C 135.785156 102.730469 136.207031 102.976562 136.75 102.976562 C 136.964844 102.976562 137.148438 102.945312 137.296875 102.882812 C 137.453125 102.824219 137.59375 102.746094 137.714844 102.648438 L 137.714844 98.476562 C 137.714844 97.671875 137.605469 97.078125 137.390625 96.699219 C 137.171875 96.324219 136.851562 96.132812 136.421875 96.132812 C 136.023438 96.132812 135.683594 96.347656 135.40625 96.773438 C 135.128906 97.199219 134.988281 97.886719 134.988281 98.839844 Z M 134.988281 98.839844 "/>
<path style=" stroke:none;fill-rule:nonzero;fill:rgb(0%,0%,0%);fill-opacity:1;" d="M 146.355469 97.425781 L 146.355469 102.707031 C 146.34375 103.03125 146.367188 103.316406 146.421875 103.558594 C 146.480469 103.796875 146.5625 104.011719 146.664062 104.199219 L 144.886719 104.199219 C 144.886719 104.199219 144.882812 104.132812 144.871094 104 C 144.867188 103.863281 144.855469 103.695312 144.839844 103.5 C 144.824219 103.304688 144.816406 103.121094 144.804688 102.949219 L 144.707031 102.949219 C 144.40625 103.832031 143.78125 104.273438 142.832031 104.273438 C 142.398438 104.273438 142.007812 104.160156 141.671875 103.925781 C 141.339844 103.691406 141.074219 103.375 140.878906 102.976562 C 140.691406 102.570312 140.597656 102.121094 140.597656 101.625 C 140.566406 101.046875 140.679688 100.511719 140.929688 100.015625 C 141.183594 99.515625 141.5625 99.113281 142.0625 98.808594 C 142.5625 98.503906 143.179688 98.351562 143.914062 98.351562 C 144.074219 98.351562 144.226562 98.359375 144.371094 98.375 C 144.515625 98.390625 144.652344 98.414062 144.78125 98.441406 L 144.78125 97.425781 C 144.78125 96.972656 144.683594 96.640625 144.488281 96.441406 C 144.300781 96.238281 143.949219 96.132812 143.4375 96.132812 C 143.03125 96.132812 142.652344 96.191406 142.296875 96.300781 C 141.941406 96.414062 141.640625 96.578125 141.398438 96.800781 L 141.398438 95.207031 C 141.757812 95.105469 142.132812 95.023438 142.53125 94.976562 C 142.929688 94.921875 143.390625 94.890625 143.914062 94.890625 C 144.695312 94.890625 145.300781 95.121094 145.722656 95.574219 C 146.144531 96.03125 146.355469 96.648438 146.355469 97.425781 Z M 144.78125 99.582031 L 143.914062 99.582031 C 143.417969 99.582031 143.011719 99.757812 142.695312 100.101562 C 142.378906 100.445312 142.222656 100.953125 142.222656 101.625 C 142.222656 102.082031 142.332031 102.4375 142.546875 102.691406 C 142.761719 102.941406 143.03125 103.066406 143.355469 103.066406 C 143.824219 103.066406 144.183594 102.90625 144.421875 102.582031 C 144.660156 102.261719 144.78125 101.800781 144.78125 101.199219 Z M 144.78125 99.582031 "/>
<path style=" stroke:none;fill-rule:nonzero;fill:rgb(0%,0%,0%);fill-opacity:1;" d="M 55.464844 110.539062 L 55.464844 111.457031 L 53.089844 111.457031 L 53.089844 120.421875 L 52.171875 120.421875 L 52.171875 111.457031 L 49.855469 111.457031 L 49.855469 110.539062 Z M 55.464844 110.539062 "/>
<path style=" stroke:none;fill-rule:nonzero;fill:rgb(0%,0%,0%);fill-opacity:1;" d="M 58.199219 120.421875 L 58.199219 110.539062 L 59.132812 110.539062 L 59.132812 120.421875 Z M 58.199219 120.421875 "/>
<path style=" stroke:none;fill-rule:nonzero;fill:rgb(0%,0%,0%);fill-opacity:1;" d="M 66.046875 111.457031 L 62.628906 111.488281 L 62.628906 114.90625 L 65.886719 114.90625 L 65.886719 115.824219 L 62.628906 115.824219 L 62.628906 118.140625 C 62.628906 118.496094 62.757812 118.8125 63.019531 119.089844 C 63.289062 119.371094 63.605469 119.507812 63.972656 119.507812 L 66.046875 119.507812 L 66.046875 120.421875 L 63.972656 120.421875 C 63.566406 120.421875 63.191406 120.320312 62.847656 120.105469 C 62.507812 119.894531 62.230469 119.613281 62.019531 119.265625 C 61.816406 118.914062 61.710938 118.539062 61.710938 118.140625 L 61.710938 111.347656 C 61.710938 111.109375 61.796875 110.914062 61.960938 110.765625 C 62.132812 110.613281 62.324219 110.539062 62.527344 110.539062 L 66.046875 110.539062 Z M 66.046875 111.457031 "/>
<path style=" stroke:none;fill-rule:nonzero;fill:rgb(0%,0%,0%);fill-opacity:1;" d="M 73.210938 119.480469 L 73.003906 118.164062 L 72.9375 110.539062 L 73.851562 110.539062 L 73.851562 119.730469 C 73.851562 119.960938 73.785156 120.132812 73.652344 120.25 C 73.519531 120.363281 73.371094 120.421875 73.210938 120.421875 C 73.089844 120.421875 72.96875 120.386719 72.851562 120.308594 C 72.738281 120.222656 72.648438 120.113281 72.59375 119.980469 C 72.246094 119.121094 71.886719 118.214844 71.519531 117.257812 C 71.152344 116.300781 70.789062 115.339844 70.429688 114.375 C 70.070312 113.40625 69.722656 112.488281 69.386719 111.613281 L 69.570312 113.066406 L 69.570312 120.421875 L 68.667969 120.421875 L 68.667969 111.222656 C 68.660156 110.996094 68.722656 110.820312 68.863281 110.691406 C 69.003906 110.5625 69.164062 110.5 69.34375 110.5 C 69.488281 110.5 69.621094 110.542969 69.746094 110.632812 C 69.871094 110.714844 69.957031 110.835938 69.996094 110.988281 L 69.988281 110.964844 Z M 73.210938 119.480469 "/>
<path style=" stroke:none;fill-rule:nonzero;fill:rgb(0%,0%,0%);fill-opacity:1;" d="M 79.328125 110.539062 C 79.722656 110.539062 80.085938 110.644531 80.425781 110.855469 C 80.765625 111.0625 81.039062 111.339844 81.242188 111.683594 C 81.449219 112.019531 81.550781 112.398438 81.550781 112.816406 L 81.550781 118.164062 C 81.550781 118.597656 81.449219 118.984375 81.242188 119.324219 C 81.039062 119.664062 80.765625 119.933594 80.425781 120.132812 C 80.085938 120.328125 79.722656 120.421875 79.328125 120.421875 L 77.109375 120.421875 C 76.863281 120.421875 76.671875 120.34375 76.527344 120.183594 C 76.386719 120.015625 76.320312 119.828125 76.320312 119.613281 L 76.320312 111.332031 C 76.320312 111.097656 76.394531 110.910156 76.542969 110.765625 C 76.695312 110.613281 76.882812 110.539062 77.109375 110.539062 Z M 80.636719 118.164062 L 80.636719 112.832031 C 80.636719 112.464844 80.503906 112.144531 80.242188 111.875 C 79.988281 111.597656 79.679688 111.457031 79.328125 111.457031 L 77.21875 111.457031 L 77.21875 111.332031 L 77.109375 111.457031 L 77.21875 111.457031 L 77.253906 119.507812 L 79.328125 119.507812 C 79.679688 119.507812 79.988281 119.378906 80.242188 119.113281 C 80.503906 118.847656 80.636719 118.53125 80.636719 118.164062 Z M 80.636719 118.164062 "/>
<path style=" stroke:none;fill-rule:nonzero;fill:rgb(0%,0%,0%);fill-opacity:1;" d="M 87.925781 111.105469 L 90.332031 120.421875 L 89.332031 120.421875 L 88.433594 116.949219 L 85.773438 116.949219 C 85.613281 117.5625 85.476562 118.082031 85.367188 118.515625 C 85.253906 118.945312 85.160156 119.308594 85.082031 119.605469 C 85.003906 119.90625 84.9375 120.179688 84.882812 120.421875 L 83.90625 120.421875 L 86.28125 111.125 C 86.359375 110.894531 86.476562 110.722656 86.632812 110.605469 C 86.792969 110.488281 86.953125 110.433594 87.117188 110.433594 C 87.277344 110.433594 87.433594 110.496094 87.589844 110.613281 C 87.75 110.738281 87.863281 110.902344 87.925781 111.105469 Z M 85.984375 116.046875 L 88.199219 116.046875 L 87.140625 111.433594 C 87.140625 111.40625 87.144531 111.378906 87.15625 111.355469 L 87.117188 111.308594 L 87.140625 111.433594 Z M 85.984375 116.046875 "/>
<path style=" stroke:none;fill-rule:nonzero;fill:rgb(0%,0%,0%);fill-opacity:1;" d="M 100.453125 110.539062 C 100.847656 110.539062 101.214844 110.644531 101.554688 110.855469 C 101.890625 111.0625 102.164062 111.339844 102.371094 111.683594 C 102.574219 112.019531 102.679688 112.398438 102.679688 112.816406 L 102.679688 118.164062 C 102.679688 118.597656 102.574219 118.984375 102.371094 119.324219 C 102.164062 119.664062 101.890625 119.933594 101.554688 120.132812 C 101.214844 120.328125 100.847656 120.421875 100.453125 120.421875 L 98.238281 120.421875 C 97.992188 120.421875 97.796875 120.34375 97.652344 120.183594 C 97.515625 120.015625 97.445312 119.828125 97.445312 119.613281 L 97.445312 111.332031 C 97.445312 111.097656 97.519531 110.910156 97.671875 110.765625 C 97.820312 110.613281 98.007812 110.539062 98.238281 110.539062 Z M 101.761719 118.164062 L 101.761719 112.832031 C 101.761719 112.464844 101.628906 112.144531 101.371094 111.875 C 101.113281 111.597656 100.808594 111.457031 100.453125 111.457031 L 98.34375 111.457031 L 98.34375 111.332031 L 98.238281 111.457031 L 98.34375 111.457031 L 98.378906 119.507812 L 100.453125 119.507812 C 100.808594 119.507812 101.113281 119.378906 101.371094 119.113281 C 101.628906 118.847656 101.761719 118.53125 101.761719 118.164062 Z M 101.761719 118.164062 "/>
<path style=" stroke:none;fill-rule:nonzero;fill:rgb(0%,0%,0%);fill-opacity:1;" d="M 109.484375 111.457031 L 106.066406 111.488281 L 106.066406 114.90625 L 109.324219 114.90625 L 109.324219 115.824219 L 106.066406 115.824219 L 106.066406 118.140625 C 106.066406 118.496094 106.195312 118.8125 106.457031 119.089844 C 106.726562 119.371094 107.042969 119.507812 107.410156 119.507812 L 109.484375 119.507812 L 109.484375 120.421875 L 107.410156 120.421875 C 107.003906 120.421875 106.628906 120.320312 106.285156 120.105469 C 105.945312 119.894531 105.667969 119.613281 105.457031 119.265625 C 105.253906 118.914062 105.152344 118.539062 105.152344 118.140625 L 105.152344 111.347656 C 105.152344 111.109375 105.234375 110.914062 105.402344 110.765625 C 105.570312 110.613281 105.761719 110.539062 105.96875 110.539062 L 109.484375 110.539062 Z M 109.484375 111.457031 "/>
<path style=" stroke:none;fill-rule:nonzero;fill:rgb(0%,0%,0%);fill-opacity:1;" d="M 120.664062 116.113281 C 120.980469 116.15625 121.25 116.28125 121.480469 116.488281 C 121.710938 116.695312 121.894531 116.9375 122.03125 117.207031 C 122.164062 117.480469 122.230469 117.730469 122.230469 117.964844 L 122.230469 120.421875 L 121.3125 120.421875 L 121.3125 117.964844 C 121.3125 117.703125 121.222656 117.472656 121.046875 117.265625 C 120.875 117.054688 120.660156 116.886719 120.40625 116.765625 C 120.15625 116.644531 119.90625 116.582031 119.664062 116.582031 L 118.046875 116.582031 L 118.046875 120.421875 L 117.144531 120.421875 L 117.144531 111.347656 C 117.144531 111.105469 117.222656 110.90625 117.371094 110.757812 C 117.519531 110.605469 117.714844 110.53125 117.953125 110.53125 L 119.929688 110.53125 C 120.363281 110.53125 120.75 110.632812 121.085938 110.832031 C 121.425781 111.027344 121.691406 111.292969 121.886719 111.632812 C 122.085938 111.972656 122.1875 112.355469 122.1875 112.789062 L 122.1875 114.296875 C 122.1875 114.519531 122.117188 114.769531 121.980469 115.046875 C 121.847656 115.320312 121.664062 115.5625 121.4375 115.765625 C 121.207031 115.964844 120.949219 116.082031 120.664062 116.113281 Z M 118.046875 115.664062 L 119.664062 115.664062 C 119.90625 115.664062 120.148438 115.605469 120.394531 115.480469 C 120.644531 115.359375 120.855469 115.195312 121.019531 114.988281 C 121.1875 114.785156 121.269531 114.554688 121.269531 114.296875 L 121.269531 112.789062 C 121.269531 112.417969 121.140625 112.101562 120.886719 111.839844 C 120.632812 111.578125 120.3125 111.449219 119.929688 111.449219 L 118.046875 111.449219 L 118.046875 111.390625 C 118.03125 111.429688 118.007812 111.449219 117.980469 111.449219 L 118.046875 111.449219 Z M 118.046875 115.664062 "/>
<path style=" stroke:none;fill-rule:nonzero;fill:rgb(0%,0%,0%);fill-opacity:1;" d="M 124.542969 112.773438 C 124.542969 112.257812 124.667969 111.828125 124.917969 111.488281 C 125.167969 111.152344 125.492188 110.894531 125.890625 110.722656 C 126.292969 110.546875 126.707031 110.457031 127.140625 110.457031 C 127.574219 110.457031 127.988281 110.546875 128.382812 110.722656 C 128.777344 110.894531 129.097656 111.152344 129.347656 111.488281 C 129.605469 111.828125 129.734375 112.257812 129.734375 112.773438 L 129.734375 118.183594 C 129.734375 118.699219 129.605469 119.128906 129.347656 119.472656 C 129.097656 119.8125 128.777344 120.070312 128.382812 120.25 C 127.988281 120.421875 127.574219 120.507812 127.140625 120.507812 C 126.707031 120.507812 126.292969 120.421875 125.890625 120.25 C 125.492188 120.070312 125.167969 119.8125 124.917969 119.472656 C 124.667969 119.128906 124.542969 118.699219 124.542969 118.183594 Z M 125.441406 118.183594 C 125.441406 118.496094 125.523438 118.753906 125.691406 118.957031 C 125.859375 119.164062 126.066406 119.320312 126.324219 119.433594 C 126.585938 119.539062 126.859375 119.589844 127.140625 119.589844 C 127.425781 119.589844 127.691406 119.539062 127.949219 119.433594 C 128.210938 119.320312 128.417969 119.164062 128.574219 118.957031 C 128.734375 118.753906 128.816406 118.496094 128.816406 118.183594 L 128.816406 112.773438 C 128.816406 112.464844 128.734375 112.203125 128.574219 112 C 128.417969 111.789062 128.210938 111.632812 127.949219 111.53125 C 127.691406 111.425781 127.425781 111.375 127.140625 111.375 C 126.859375 111.375 126.585938 111.425781 126.324219 111.53125 C 126.066406 111.632812 125.859375 111.789062 125.691406 112 C 125.523438 112.203125 125.441406 112.464844 125.441406 112.773438 Z M 125.441406 118.183594 "/>
<path style=" stroke:none;fill-rule:nonzero;fill:rgb(0%,0%,0%);fill-opacity:1;" d="M 135.027344 110.539062 C 135.433594 110.539062 135.804688 110.644531 136.136719 110.855469 C 136.472656 111.070312 136.738281 111.347656 136.9375 111.691406 C 137.140625 112.035156 137.246094 112.410156 137.246094 112.816406 L 137.246094 114.265625 C 137.246094 114.664062 137.140625 115.039062 136.9375 115.382812 C 136.738281 115.722656 136.472656 115.996094 136.136719 116.207031 C 135.804688 116.417969 135.433594 116.523438 135.027344 116.523438 L 133.105469 116.523438 L 133.105469 120.421875 L 132.203125 120.421875 L 132.203125 111.347656 C 132.203125 111.109375 132.285156 110.914062 132.445312 110.765625 C 132.605469 110.613281 132.789062 110.539062 132.996094 110.539062 Z M 133.105469 115.605469 L 135.027344 115.605469 C 135.382812 115.605469 135.691406 115.476562 135.945312 115.214844 C 136.199219 114.949219 136.328125 114.632812 136.328125 114.265625 L 136.328125 112.816406 C 136.328125 112.449219 136.199219 112.132812 135.945312 111.863281 C 135.691406 111.59375 135.382812 111.457031 135.027344 111.457031 L 133.105469 111.488281 Z M 133.105469 115.605469 "/>
<path style=" stroke:none;fill-rule:nonzero;fill:rgb(0%,0%,0%);fill-opacity:1;" d="M 143.328125 111.105469 L 145.738281 120.421875 L 144.738281 120.421875 L 143.839844 116.949219 L 141.179688 116.949219 C 141.015625 117.5625 140.882812 118.082031 140.769531 118.515625 C 140.660156 118.945312 140.566406 119.308594 140.488281 119.605469 C 140.410156 119.90625 140.34375 120.179688 140.289062 120.421875 L 139.3125 120.421875 L 141.6875 111.125 C 141.765625 110.894531 141.882812 110.722656 142.039062 110.605469 C 142.199219 110.488281 142.359375 110.433594 142.519531 110.433594 C 142.683594 110.433594 142.839844 110.496094 142.996094 110.613281 C 143.15625 110.738281 143.265625 110.902344 143.328125 111.105469 Z M 141.386719 116.046875 L 143.605469 116.046875 L 142.546875 111.433594 C 142.546875 111.40625 142.550781 111.378906 142.5625 111.355469 L 142.519531 111.308594 L 142.546875 111.433594 Z M 141.386719 116.046875 "/>
</g>
</svg>
