<?xml version="1.0" encoding="UTF-8"?>
<svg xmlns="http://www.w3.org/2000/svg" xmlns:xlink="http://www.w3.org/1999/xlink" width="100px" height="100px" viewBox="0 0 100 100" version="1.1">
<defs>
<clipPath id="clip1">
  <path d="M 65.660156 18 L 75.464844 18 L 75.464844 25.601562 L 65.660156 25.601562 Z M 65.660156 18 "/>
</clipPath>
<clipPath id="clip2">
  <path d="M 74.933594 22.398438 L 82.859375 22.398438 L 82.859375 30.667969 L 74.933594 30.667969 Z M 74.933594 22.398438 "/>
</clipPath>
<clipPath id="clip3">
  <path d="M 49.152344 62.738281 L 50.847656 62.738281 L 50.847656 64.429688 L 49.152344 64.429688 Z M 49.152344 62.738281 "/>
</clipPath>
<clipPath id="clip4">
  <path d="M 50 62.738281 C 49.53125 62.738281 49.152344 63.117188 49.152344 63.582031 C 49.152344 64.050781 49.53125 64.429688 50 64.429688 C 50.46875 64.429688 50.847656 64.050781 50.847656 63.582031 C 50.847656 63.117188 50.46875 62.738281 50 62.738281 Z M 50 62.738281 "/>
</clipPath>
</defs>
<g id="surface1">
<rect x="0" y="0" width="100" height="100" style="fill:rgb(100%,100%,100%);fill-opacity:1;stroke:none;"/>
<g clip-path="url(#clip1)" clip-rule="nonzero">
<path style=" stroke:none;fill-rule:nonzero;fill:rgb(0%,0%,0%);fill-opacity:1;" d="M 74.359375 20.359375 C 74.28125 20.191406 74.105469 19.945312 73.976562 19.707031 C 73.660156 19.128906 73.921875 18.546875 74.484375 18.496094 C 74.910156 18.457031 75.328125 18.882812 75.09375 19.585938 C 75.039062 19.746094 75.132812 19.808594 75.230469 19.679688 C 75.792969 18.886719 75.140625 18.023438 74.457031 18.097656 C 73.777344 18.167969 73.273438 19.121094 73.714844 19.910156 C 73.824219 20.117188 73.96875 20.332031 74.078125 20.574219 C 75.773438 24.414062 67.367188 21.28125 65.765625 25.316406 C 65.660156 25.574219 65.972656 25.664062 66.195312 25.410156 C 68.445312 22.726562 72.164062 24.257812 74.367188 22.558594 C 74.441406 22.496094 74.507812 22.429688 74.5625 22.355469 L 74.660156 22.203125 C 74.9375 21.652344 74.628906 20.960938 74.359375 20.359375 Z M 74.359375 20.359375 "/>
</g>
<g clip-path="url(#clip2)" clip-rule="nonzero">
<path style=" stroke:none;fill-rule:nonzero;fill:rgb(0%,0%,0%);fill-opacity:1;" d="M 82.839844 29.496094 C 82.648438 28.492188 81.570312 27.824219 80.792969 27.242188 C 79.585938 26.382812 78.277344 25.457031 77.042969 24.402344 C 76.304688 23.78125 75.609375 23.121094 74.949219 22.417969 C 74.949219 22.425781 74.949219 22.976562 75.964844 24.140625 C 76.859375 25.152344 78.246094 26.332031 79.484375 27.289062 C 80.71875 28.242188 81.800781 29.019531 82.082031 29.84375 C 82.152344 30.054688 82.09375 30.453125 82.261719 30.558594 C 82.433594 30.664062 82.578125 30.519531 82.695312 30.363281 C 82.890625 30.09375 82.882812 29.746094 82.839844 29.496094 Z M 82.839844 29.496094 "/>
</g>
<path style=" stroke:none;fill-rule:nonzero;fill:rgb(0%,0%,0%);fill-opacity:1;" d="M 81.71875 45.511719 C 76.914062 60.074219 80.113281 44.503906 69.277344 44.523438 C 69.351562 43.871094 69.511719 43.238281 69.757812 42.625 C 70.003906 42.011719 70.324219 41.445312 70.722656 40.917969 C 71.234375 40.253906 71.863281 39.683594 72.367188 39.011719 C 74.558594 36.039062 70.605469 32.382812 69.269531 29.910156 C 69.054688 29.503906 68.847656 29.085938 68.792969 28.632812 C 68.628906 27.207031 70.199219 26.378906 71.421875 26.515625 C 73.011719 26.691406 74.269531 27.84375 74.753906 29.339844 C 74.949219 29.949219 75.140625 30.761719 75.027344 31.414062 C 75.207031 31.023438 75.339844 30.617188 75.421875 30.191406 C 75.617188 29.09375 76.703125 28.371094 77.769531 28.679688 C 78.488281 28.890625 79.003906 29.398438 78.90625 30.238281 C 78.839844 30.792969 78.507812 31.351562 78.167969 31.925781 C 77.003906 33.867188 76.925781 35.136719 78.441406 36.929688 C 79.960938 38.722656 81.804688 40.679688 81.890625 43.300781 C 81.902344 44.042969 81.847656 44.78125 81.71875 45.511719 Z M 81.71875 45.511719 "/>
<path style="fill:none;stroke-width:1;stroke-linecap:butt;stroke-linejoin:miter;stroke:rgb(0%,0%,0%);stroke-opacity:1;stroke-miterlimit:4;" d="M -0.00752833 0.505072 L 244.484659 0.505072 " transform="matrix(0.2,0,0,0.2,24.704631,62.637267)"/>
<g clip-path="url(#clip3)" clip-rule="nonzero">
<g clip-path="url(#clip4)" clip-rule="nonzero">
<path style=" stroke:none;fill-rule:nonzero;fill:rgb(0%,0%,0%);fill-opacity:1;" d="M 49.152344 62.738281 L 50.847656 62.738281 L 50.847656 64.429688 L 49.152344 64.429688 Z M 49.152344 62.738281 "/>
</g>
</g>
<path style=" stroke:none;fill-rule:nonzero;fill:rgb(0%,0%,0%);fill-opacity:1;" d="M 27.667969 51.222656 L 27.667969 51.941406 C 27.3125 52.046875 26.871094 52.101562 26.339844 52.101562 C 26.066406 52.101562 25.824219 52.09375 25.617188 52.078125 C 25.414062 52.066406 25.242188 52.050781 25.109375 52.027344 L 25.109375 46.011719 C 25.285156 45.972656 25.503906 45.945312 25.761719 45.921875 C 26.019531 45.894531 26.285156 45.882812 26.5625 45.882812 C 27.003906 45.882812 27.371094 45.929688 27.660156 46.019531 L 27.660156 46.789062 C 27.539062 46.683594 27.390625 46.605469 27.210938 46.558594 C 27.03125 46.511719 26.832031 46.488281 26.609375 46.488281 C 26.429688 46.488281 26.285156 46.496094 26.171875 46.507812 C 26.066406 46.519531 25.976562 46.53125 25.910156 46.546875 L 25.910156 48.113281 L 26.632812 48.113281 C 26.863281 48.113281 27.066406 48.082031 27.238281 48.019531 C 27.414062 47.960938 27.558594 47.878906 27.671875 47.773438 L 27.671875 48.988281 C 27.53125 48.894531 27.367188 48.824219 27.175781 48.785156 C 26.988281 48.738281 26.785156 48.714844 26.574219 48.714844 L 25.917969 48.714844 L 25.917969 51.4375 C 26 51.453125 26.09375 51.464844 26.207031 51.472656 C 26.316406 51.472656 26.445312 51.476562 26.585938 51.476562 C 26.792969 51.476562 26.992188 51.457031 27.175781 51.417969 C 27.367188 51.375 27.53125 51.308594 27.667969 51.222656 Z M 27.667969 51.222656 "/>
<path style=" stroke:none;fill-rule:nonzero;fill:rgb(0%,0%,0%);fill-opacity:1;" d="M 29.003906 48.597656 C 29.003906 48.75 29.070312 48.886719 29.207031 49.011719 C 29.34375 49.136719 29.507812 49.257812 29.699219 49.367188 C 29.882812 49.46875 30.070312 49.585938 30.253906 49.710938 C 30.4375 49.839844 30.59375 49.992188 30.71875 50.171875 C 30.84375 50.347656 30.90625 50.570312 30.90625 50.835938 C 30.90625 51.074219 30.847656 51.289062 30.734375 51.480469 C 30.621094 51.671875 30.460938 51.824219 30.261719 51.933594 C 30.058594 52.042969 29.824219 52.101562 29.554688 52.101562 C 29.332031 52.101562 29.121094 52.074219 28.921875 52.019531 C 28.726562 51.96875 28.546875 51.890625 28.390625 51.789062 L 28.390625 50.597656 C 28.453125 50.757812 28.542969 50.90625 28.664062 51.042969 C 28.785156 51.175781 28.925781 51.285156 29.082031 51.367188 C 29.238281 51.449219 29.390625 51.488281 29.546875 51.488281 C 29.71875 51.488281 29.863281 51.445312 29.980469 51.355469 C 30.101562 51.265625 30.160156 51.125 30.160156 50.933594 C 30.160156 50.820312 30.121094 50.714844 30.039062 50.621094 C 29.957031 50.527344 29.851562 50.4375 29.722656 50.351562 C 29.589844 50.261719 29.453125 50.171875 29.304688 50.082031 C 29.140625 49.976562 28.980469 49.863281 28.824219 49.738281 C 28.664062 49.613281 28.535156 49.460938 28.429688 49.277344 C 28.328125 49.097656 28.277344 48.882812 28.277344 48.632812 C 28.277344 48.398438 28.335938 48.191406 28.453125 48.011719 C 28.570312 47.835938 28.730469 47.695312 28.933594 47.597656 C 29.140625 47.496094 29.378906 47.445312 29.644531 47.445312 C 29.851562 47.445312 30.039062 47.464844 30.203125 47.507812 C 30.367188 47.546875 30.519531 47.601562 30.65625 47.667969 L 30.65625 48.773438 C 30.566406 48.539062 30.429688 48.355469 30.242188 48.222656 C 30.058594 48.085938 29.859375 48.015625 29.644531 48.015625 C 29.433594 48.015625 29.273438 48.070312 29.164062 48.175781 C 29.054688 48.28125 29.003906 48.421875 29.003906 48.597656 Z M 29.003906 48.597656 "/>
<path style=" stroke:none;fill-rule:nonzero;fill:rgb(0%,0%,0%);fill-opacity:1;" d="M 32.246094 48.292969 L 32.246094 50.835938 C 32.246094 51.0625 32.289062 51.226562 32.378906 51.328125 C 32.460938 51.433594 32.617188 51.484375 32.84375 51.484375 C 32.953125 51.484375 33.0625 51.460938 33.167969 51.421875 C 33.273438 51.378906 33.367188 51.308594 33.445312 51.222656 L 33.445312 51.941406 C 33.335938 51.996094 33.214844 52.035156 33.074219 52.0625 C 32.929688 52.085938 32.777344 52.101562 32.609375 52.101562 C 32.242188 52.101562 31.953125 51.988281 31.746094 51.757812 C 31.542969 51.53125 31.441406 51.222656 31.441406 50.835938 L 31.441406 46.871094 C 31.582031 46.820312 31.722656 46.773438 31.863281 46.734375 C 32.007812 46.691406 32.132812 46.664062 32.246094 46.644531 L 32.246094 47.6875 L 32.921875 47.6875 C 33.109375 47.6875 33.277344 47.667969 33.433594 47.625 L 33.433594 48.421875 C 33.34375 48.402344 33.25 48.375 33.15625 48.339844 C 33.0625 48.308594 32.964844 48.292969 32.863281 48.292969 Z M 32.246094 48.292969 "/>
<path style=" stroke:none;fill-rule:nonzero;fill:rgb(0%,0%,0%);fill-opacity:1;" d="M 34.996094 47.554688 L 34.996094 52.101562 C 34.835938 52.089844 34.683594 52.082031 34.542969 52.070312 C 34.402344 52.058594 34.28125 52.042969 34.1875 52.027344 L 34.1875 47.652344 C 34.289062 47.628906 34.414062 47.609375 34.554688 47.589844 C 34.699219 47.574219 34.847656 47.5625 34.996094 47.554688 Z M 34.996094 45.882812 L 34.996094 46.707031 C 34.835938 46.699219 34.683594 46.6875 34.542969 46.679688 C 34.402344 46.671875 34.28125 46.65625 34.1875 46.636719 L 34.1875 45.976562 C 34.289062 45.953125 34.414062 45.933594 34.558594 45.921875 C 34.703125 45.90625 34.847656 45.894531 34.996094 45.882812 Z M 34.996094 45.882812 "/>
<path style=" stroke:none;fill-rule:nonzero;fill:rgb(0%,0%,0%);fill-opacity:1;" d="M 36.789062 45.882812 L 36.789062 51.050781 C 36.789062 51.199219 36.808594 51.304688 36.855469 51.363281 C 36.898438 51.417969 36.980469 51.445312 37.101562 51.445312 C 37.15625 51.445312 37.222656 51.429688 37.296875 51.394531 C 37.375 51.363281 37.4375 51.304688 37.484375 51.222656 L 37.484375 51.941406 C 37.410156 51.996094 37.316406 52.035156 37.210938 52.0625 C 37.101562 52.085938 36.988281 52.101562 36.867188 52.101562 C 36.582031 52.101562 36.363281 52.007812 36.214844 51.816406 C 36.066406 51.628906 35.992188 51.371094 35.992188 51.050781 L 35.992188 45.953125 C 36.085938 45.941406 36.199219 45.925781 36.335938 45.914062 C 36.46875 45.898438 36.621094 45.890625 36.789062 45.882812 Z M 36.789062 45.882812 "/>
<path style=" stroke:none;fill-rule:nonzero;fill:rgb(0%,0%,0%);fill-opacity:1;" d="M 39.359375 47.445312 C 39.746094 47.445312 40.066406 47.554688 40.3125 47.769531 C 40.5625 47.984375 40.75 48.285156 40.871094 48.671875 C 40.996094 49.058594 41.058594 49.507812 41.058594 50.023438 C 41.058594 50.273438 41.027344 50.519531 40.960938 50.761719 C 40.902344 51.003906 40.804688 51.226562 40.679688 51.429688 C 40.550781 51.628906 40.386719 51.792969 40.1875 51.917969 C 39.988281 52.039062 39.753906 52.101562 39.480469 52.101562 C 39.0625 52.101562 38.726562 51.996094 38.476562 51.785156 C 38.226562 51.570312 38.042969 51.269531 37.933594 50.882812 C 37.820312 50.496094 37.765625 50.042969 37.765625 49.519531 C 37.765625 49.273438 37.796875 49.027344 37.859375 48.785156 C 37.917969 48.535156 38.015625 48.3125 38.144531 48.113281 C 38.277344 47.910156 38.441406 47.75 38.640625 47.628906 C 38.84375 47.507812 39.082031 47.445312 39.359375 47.445312 Z M 39.457031 51.515625 C 39.613281 51.515625 39.742188 51.464844 39.84375 51.363281 C 39.941406 51.257812 40.019531 51.125 40.074219 50.960938 C 40.132812 50.800781 40.171875 50.636719 40.191406 50.472656 C 40.214844 50.300781 40.226562 50.152344 40.226562 50.023438 C 40.226562 49.789062 40.210938 49.554688 40.183594 49.320312 C 40.15625 49.085938 40.109375 48.871094 40.042969 48.675781 C 39.976562 48.480469 39.886719 48.324219 39.773438 48.207031 C 39.667969 48.089844 39.53125 48.027344 39.367188 48.027344 C 39.210938 48.027344 39.082031 48.082031 38.984375 48.1875 C 38.882812 48.289062 38.804688 48.421875 38.746094 48.582031 C 38.691406 48.746094 38.652344 48.910156 38.628906 49.078125 C 38.609375 49.246094 38.601562 49.394531 38.601562 49.519531 C 38.601562 49.757812 38.613281 49.992188 38.640625 50.230469 C 38.667969 50.460938 38.71875 50.675781 38.785156 50.871094 C 38.851562 51.066406 38.9375 51.222656 39.050781 51.339844 C 39.160156 51.457031 39.296875 51.515625 39.457031 51.515625 Z M 39.457031 51.515625 "/>
<path style=" stroke:none;fill-rule:nonzero;fill:rgb(0%,0%,0%);fill-opacity:1;" d="M 45.710938 51.222656 L 45.710938 51.941406 C 45.355469 52.046875 44.910156 52.101562 44.382812 52.101562 C 44.105469 52.101562 43.867188 52.09375 43.660156 52.078125 C 43.453125 52.066406 43.285156 52.050781 43.152344 52.027344 L 43.152344 46.011719 C 43.328125 45.972656 43.542969 45.945312 43.800781 45.921875 C 44.0625 45.894531 44.328125 45.882812 44.601562 45.882812 C 45.046875 45.882812 45.414062 45.929688 45.703125 46.019531 L 45.703125 46.789062 C 45.582031 46.683594 45.433594 46.605469 45.253906 46.558594 C 45.074219 46.511719 44.875 46.488281 44.652344 46.488281 C 44.472656 46.488281 44.324219 46.496094 44.214844 46.507812 C 44.105469 46.519531 44.019531 46.53125 43.953125 46.546875 L 43.953125 48.113281 L 44.671875 48.113281 C 44.902344 48.113281 45.105469 48.082031 45.28125 48.019531 C 45.457031 47.960938 45.601562 47.878906 45.714844 47.773438 L 45.714844 48.988281 C 45.574219 48.894531 45.40625 48.824219 45.21875 48.785156 C 45.03125 48.738281 44.828125 48.714844 44.613281 48.714844 L 43.960938 48.714844 L 43.960938 51.4375 C 44.042969 51.453125 44.136719 51.464844 44.25 51.472656 C 44.359375 51.472656 44.484375 51.476562 44.628906 51.476562 C 44.835938 51.476562 45.03125 51.457031 45.21875 51.417969 C 45.40625 51.375 45.570312 51.308594 45.710938 51.222656 Z M 45.710938 51.222656 "/>
<path style=" stroke:none;fill-rule:nonzero;fill:rgb(0%,0%,0%);fill-opacity:1;" d="M 47.042969 48.597656 C 47.042969 48.75 47.113281 48.886719 47.25 49.011719 C 47.386719 49.136719 47.550781 49.257812 47.738281 49.367188 C 47.925781 49.46875 48.109375 49.585938 48.292969 49.710938 C 48.480469 49.839844 48.636719 49.992188 48.761719 50.171875 C 48.886719 50.347656 48.949219 50.570312 48.949219 50.835938 C 48.949219 51.074219 48.890625 51.289062 48.777344 51.480469 C 48.664062 51.671875 48.503906 51.824219 48.300781 51.933594 C 48.097656 52.042969 47.863281 52.101562 47.597656 52.101562 C 47.375 52.101562 47.164062 52.074219 46.964844 52.019531 C 46.765625 51.96875 46.589844 51.890625 46.429688 51.789062 L 46.429688 50.597656 C 46.496094 50.757812 46.585938 50.90625 46.707031 51.042969 C 46.828125 51.175781 46.96875 51.285156 47.125 51.367188 C 47.277344 51.449219 47.433594 51.488281 47.589844 51.488281 C 47.761719 51.488281 47.90625 51.445312 48.023438 51.355469 C 48.140625 51.265625 48.203125 51.125 48.203125 50.933594 C 48.203125 50.820312 48.160156 50.714844 48.082031 50.621094 C 48 50.527344 47.894531 50.4375 47.765625 50.351562 C 47.632812 50.261719 47.496094 50.171875 47.347656 50.082031 C 47.183594 49.976562 47.023438 49.863281 46.863281 49.738281 C 46.707031 49.613281 46.574219 49.460938 46.472656 49.277344 C 46.371094 49.097656 46.320312 48.882812 46.320312 48.632812 C 46.320312 48.398438 46.378906 48.191406 46.492188 48.011719 C 46.609375 47.835938 46.769531 47.695312 46.976562 47.597656 C 47.183594 47.496094 47.417969 47.445312 47.6875 47.445312 C 47.894531 47.445312 48.078125 47.464844 48.242188 47.507812 C 48.410156 47.546875 48.5625 47.601562 48.699219 47.667969 L 48.699219 48.773438 C 48.609375 48.539062 48.472656 48.355469 48.285156 48.222656 C 48.101562 48.085938 47.902344 48.015625 47.6875 48.015625 C 47.476562 48.015625 47.316406 48.070312 47.207031 48.175781 C 47.097656 48.28125 47.042969 48.421875 47.042969 48.597656 Z M 47.042969 48.597656 "/>
<path style=" stroke:none;fill-rule:nonzero;fill:rgb(0%,0%,0%);fill-opacity:1;" d="M 54.734375 49.046875 L 54.734375 52.101562 C 54.578125 52.089844 54.425781 52.082031 54.28125 52.070312 C 54.140625 52.058594 54.019531 52.042969 53.925781 52.027344 L 53.925781 49.046875 C 53.925781 48.765625 53.875 48.527344 53.765625 48.335938 C 53.65625 48.144531 53.480469 48.050781 53.238281 48.050781 C 53.113281 48.050781 52.996094 48.105469 52.894531 48.214844 C 52.789062 48.324219 52.707031 48.464844 52.648438 48.636719 C 52.585938 48.808594 52.554688 48.992188 52.554688 49.1875 L 52.554688 52.101562 C 52.394531 52.089844 52.242188 52.082031 52.101562 52.070312 C 51.960938 52.058594 51.84375 52.042969 51.75 52.027344 L 51.75 49.046875 C 51.75 48.691406 51.691406 48.4375 51.582031 48.285156 C 51.472656 48.128906 51.296875 48.050781 51.054688 48.050781 C 50.929688 48.050781 50.8125 48.105469 50.710938 48.214844 C 50.609375 48.324219 50.53125 48.464844 50.46875 48.636719 C 50.40625 48.808594 50.378906 48.992188 50.378906 49.1875 L 50.378906 52.101562 C 50.214844 52.089844 50.0625 52.082031 49.917969 52.070312 C 49.777344 52.058594 49.660156 52.042969 49.566406 52.027344 L 49.566406 48.441406 C 49.570312 48.261719 49.558594 48.089844 49.527344 47.933594 C 49.5 47.773438 49.460938 47.648438 49.410156 47.554688 L 50.257812 47.554688 C 50.257812 47.554688 50.265625 47.589844 50.28125 47.660156 C 50.296875 47.726562 50.316406 47.804688 50.332031 47.898438 C 50.351562 47.996094 50.363281 48.085938 50.367188 48.179688 L 50.425781 48.179688 C 50.488281 47.945312 50.601562 47.761719 50.769531 47.636719 C 50.9375 47.511719 51.128906 47.445312 51.339844 47.445312 C 51.648438 47.445312 51.890625 47.535156 52.066406 47.714844 C 52.238281 47.898438 52.351562 48.144531 52.40625 48.453125 L 52.457031 48.453125 C 52.515625 48.171875 52.632812 47.933594 52.8125 47.738281 C 52.992188 47.542969 53.226562 47.445312 53.523438 47.445312 C 53.90625 47.445312 54.203125 47.585938 54.414062 47.867188 C 54.628906 48.144531 54.734375 48.539062 54.734375 49.046875 Z M 54.734375 49.046875 "/>
<path style=" stroke:none;fill-rule:nonzero;fill:rgb(0%,0%,0%);fill-opacity:1;" d="M 57.972656 51.222656 L 57.972656 51.941406 C 57.851562 51.992188 57.738281 52.03125 57.636719 52.058594 C 57.539062 52.085938 57.417969 52.101562 57.28125 52.101562 C 57.039062 52.101562 56.800781 52.0625 56.570312 51.984375 C 56.34375 51.90625 56.132812 51.769531 55.945312 51.578125 C 55.757812 51.386719 55.613281 51.125 55.503906 50.792969 C 55.394531 50.457031 55.34375 50.03125 55.34375 49.519531 C 55.34375 49.113281 55.402344 48.753906 55.523438 48.445312 C 55.648438 48.136719 55.832031 47.890625 56.074219 47.710938 C 56.320312 47.535156 56.617188 47.445312 56.976562 47.445312 C 57.257812 47.445312 57.496094 47.511719 57.691406 47.636719 C 57.886719 47.765625 58.035156 47.929688 58.132812 48.132812 C 58.234375 48.332031 58.285156 48.542969 58.285156 48.765625 C 58.304688 49.199219 58.171875 49.535156 57.882812 49.769531 C 57.59375 50.007812 57.175781 50.125 56.625 50.125 C 56.542969 50.125 56.464844 50.125 56.386719 50.121094 C 56.308594 50.117188 56.238281 50.105469 56.171875 50.085938 C 56.210938 50.382812 56.273438 50.621094 56.359375 50.804688 C 56.445312 50.984375 56.546875 51.125 56.664062 51.226562 C 56.777344 51.324219 56.894531 51.394531 57.011719 51.429688 C 57.132812 51.464844 57.246094 51.484375 57.351562 51.484375 C 57.464844 51.484375 57.566406 51.460938 57.65625 51.421875 C 57.746094 51.378906 57.851562 51.308594 57.972656 51.222656 Z M 56.90625 48.050781 C 56.679688 48.050781 56.5 48.175781 56.355469 48.429688 C 56.210938 48.679688 56.136719 49.039062 56.136719 49.507812 L 56.625 49.507812 C 56.792969 49.507812 56.9375 49.492188 57.066406 49.460938 C 57.195312 49.433594 57.292969 49.363281 57.363281 49.257812 C 57.433594 49.152344 57.472656 48.988281 57.472656 48.765625 C 57.472656 48.542969 57.417969 48.367188 57.308594 48.242188 C 57.203125 48.113281 57.066406 48.050781 56.90625 48.050781 Z M 56.90625 48.050781 "/>
<path style=" stroke:none;fill-rule:nonzero;fill:rgb(0%,0%,0%);fill-opacity:1;" d="M 60.84375 47.609375 L 60.84375 48.332031 C 60.792969 48.296875 60.730469 48.261719 60.652344 48.222656 C 60.578125 48.183594 60.480469 48.164062 60.359375 48.164062 C 60.164062 48.164062 60.007812 48.238281 59.894531 48.386719 C 59.78125 48.539062 59.722656 48.761719 59.722656 49.058594 L 59.722656 52.101562 C 59.421875 52.082031 59.160156 52.046875 58.941406 52 L 58.941406 48.300781 C 58.945312 48.140625 58.933594 48 58.902344 47.878906 C 58.875 47.757812 58.835938 47.648438 58.785156 47.554688 L 59.675781 47.554688 C 59.675781 47.554688 59.675781 47.589844 59.679688 47.660156 C 59.683594 47.726562 59.6875 47.804688 59.695312 47.898438 C 59.703125 47.996094 59.710938 48.085938 59.714844 48.179688 L 59.785156 48.179688 C 59.867188 47.925781 59.96875 47.742188 60.089844 47.625 C 60.214844 47.507812 60.347656 47.445312 60.492188 47.445312 C 60.585938 47.445312 60.664062 47.460938 60.722656 47.492188 C 60.785156 47.523438 60.824219 47.5625 60.84375 47.609375 Z M 60.84375 47.609375 "/>
<path style=" stroke:none;fill-rule:nonzero;fill:rgb(0%,0%,0%);fill-opacity:1;" d="M 63.980469 48.710938 L 63.980469 51.355469 C 63.972656 51.515625 63.984375 51.65625 64.011719 51.777344 C 64.042969 51.898438 64.082031 52.007812 64.132812 52.101562 L 63.246094 52.101562 C 63.246094 52.101562 63.242188 52.066406 63.238281 52 C 63.234375 51.929688 63.230469 51.847656 63.222656 51.75 C 63.214844 51.652344 63.210938 51.5625 63.203125 51.476562 L 63.152344 51.476562 C 63.003906 51.917969 62.691406 52.136719 62.214844 52.136719 C 62 52.136719 61.804688 52.078125 61.636719 51.960938 C 61.472656 51.847656 61.339844 51.6875 61.242188 51.488281 C 61.148438 51.285156 61.101562 51.058594 61.101562 50.8125 C 61.085938 50.523438 61.140625 50.257812 61.265625 50.007812 C 61.394531 49.757812 61.582031 49.558594 61.832031 49.402344 C 62.082031 49.253906 62.390625 49.175781 62.757812 49.175781 C 62.839844 49.175781 62.914062 49.179688 62.988281 49.1875 C 63.058594 49.195312 63.128906 49.207031 63.191406 49.222656 L 63.191406 48.710938 C 63.191406 48.484375 63.144531 48.320312 63.046875 48.222656 C 62.949219 48.117188 62.777344 48.066406 62.519531 48.066406 C 62.316406 48.066406 62.128906 48.09375 61.949219 48.148438 C 61.773438 48.207031 61.621094 48.289062 61.5 48.398438 L 61.5 47.605469 C 61.679688 47.550781 61.867188 47.511719 62.066406 47.488281 C 62.265625 47.460938 62.496094 47.445312 62.757812 47.445312 C 63.148438 47.445312 63.449219 47.558594 63.664062 47.789062 C 63.871094 48.015625 63.980469 48.324219 63.980469 48.710938 Z M 63.191406 49.792969 L 62.757812 49.792969 C 62.511719 49.792969 62.308594 49.878906 62.148438 50.050781 C 61.992188 50.222656 61.914062 50.476562 61.914062 50.8125 C 61.914062 51.039062 61.964844 51.21875 62.074219 51.347656 C 62.183594 51.472656 62.316406 51.535156 62.480469 51.535156 C 62.714844 51.535156 62.894531 51.453125 63.011719 51.292969 C 63.132812 51.132812 63.191406 50.898438 63.191406 50.601562 Z M 63.191406 49.792969 "/>
<path style=" stroke:none;fill-rule:nonzero;fill:rgb(0%,0%,0%);fill-opacity:1;" d="M 65.710938 45.882812 L 65.710938 51.050781 C 65.710938 51.199219 65.734375 51.304688 65.777344 51.363281 C 65.824219 51.417969 65.90625 51.445312 66.023438 51.445312 C 66.078125 51.445312 66.144531 51.429688 66.21875 51.394531 C 66.296875 51.363281 66.359375 51.304688 66.40625 51.222656 L 66.40625 51.941406 C 66.332031 51.996094 66.242188 52.035156 66.132812 52.0625 C 66.027344 52.085938 65.914062 52.101562 65.792969 52.101562 C 65.503906 52.101562 65.289062 52.007812 65.136719 51.816406 C 64.988281 51.628906 64.917969 51.371094 64.917969 51.050781 L 64.917969 45.953125 C 65.011719 45.941406 65.125 45.925781 65.257812 45.914062 C 65.394531 45.898438 65.546875 45.890625 65.710938 45.882812 Z M 65.710938 45.882812 "/>
<path style=" stroke:none;fill-rule:nonzero;fill:rgb(0%,0%,0%);fill-opacity:1;" d="M 68.773438 48.128906 L 68.859375 48.128906 L 68.859375 45.984375 C 69.070312 45.941406 69.335938 45.910156 69.652344 45.882812 L 69.652344 51.867188 C 69.503906 51.898438 69.316406 51.949219 69.097656 52.007812 C 68.882812 52.070312 68.65625 52.101562 68.414062 52.101562 C 68.066406 52.101562 67.765625 52.015625 67.511719 51.851562 C 67.257812 51.679688 67.0625 51.445312 66.921875 51.144531 C 66.777344 50.84375 66.703125 50.492188 66.691406 50.097656 L 66.691406 49.421875 C 66.691406 48.972656 66.75 48.601562 66.867188 48.3125 C 66.984375 48.019531 67.128906 47.804688 67.308594 47.664062 C 67.488281 47.519531 67.667969 47.445312 67.847656 47.445312 C 68.0625 47.445312 68.242188 47.496094 68.390625 47.601562 C 68.539062 47.703125 68.667969 47.878906 68.773438 48.128906 Z M 67.496094 49.421875 L 67.496094 50.097656 C 67.503906 50.527344 67.582031 50.867188 67.738281 51.117188 C 67.890625 51.363281 68.105469 51.488281 68.375 51.488281 C 68.484375 51.488281 68.574219 51.472656 68.648438 51.441406 C 68.726562 51.410156 68.796875 51.371094 68.859375 51.324219 L 68.859375 49.238281 C 68.859375 48.835938 68.804688 48.539062 68.695312 48.351562 C 68.585938 48.160156 68.425781 48.066406 68.210938 48.066406 C 68.011719 48.066406 67.84375 48.175781 67.703125 48.386719 C 67.5625 48.597656 67.496094 48.945312 67.496094 49.421875 Z M 67.496094 49.421875 "/>
<path style=" stroke:none;fill-rule:nonzero;fill:rgb(0%,0%,0%);fill-opacity:1;" d="M 73.175781 48.710938 L 73.175781 51.355469 C 73.171875 51.515625 73.183594 51.65625 73.210938 51.777344 C 73.242188 51.898438 73.28125 52.007812 73.332031 52.101562 L 72.445312 52.101562 C 72.445312 52.101562 72.441406 52.066406 72.4375 52 C 72.433594 51.929688 72.425781 51.847656 72.417969 51.75 C 72.414062 51.652344 72.40625 51.5625 72.402344 51.476562 L 72.351562 51.476562 C 72.203125 51.917969 71.890625 52.136719 71.414062 52.136719 C 71.199219 52.136719 71.003906 52.078125 70.835938 51.960938 C 70.667969 51.847656 70.535156 51.6875 70.441406 51.488281 C 70.34375 51.285156 70.296875 51.058594 70.296875 50.8125 C 70.285156 50.523438 70.339844 50.257812 70.464844 50.007812 C 70.59375 49.757812 70.78125 49.558594 71.03125 49.402344 C 71.28125 49.253906 71.589844 49.175781 71.957031 49.175781 C 72.035156 49.175781 72.113281 49.179688 72.1875 49.1875 C 72.257812 49.195312 72.324219 49.207031 72.390625 49.222656 L 72.390625 48.710938 C 72.390625 48.484375 72.339844 48.320312 72.246094 48.222656 C 72.148438 48.117188 71.972656 48.066406 71.71875 48.066406 C 71.515625 48.066406 71.324219 48.09375 71.148438 48.148438 C 70.96875 48.207031 70.820312 48.289062 70.699219 48.398438 L 70.699219 47.605469 C 70.878906 47.550781 71.066406 47.511719 71.265625 47.488281 C 71.464844 47.460938 71.695312 47.445312 71.957031 47.445312 C 72.347656 47.445312 72.648438 47.558594 72.859375 47.789062 C 73.070312 48.015625 73.175781 48.324219 73.175781 48.710938 Z M 72.390625 49.792969 L 71.957031 49.792969 C 71.707031 49.792969 71.507812 49.878906 71.347656 50.050781 C 71.191406 50.222656 71.109375 50.476562 71.109375 50.8125 C 71.109375 51.039062 71.164062 51.21875 71.273438 51.347656 C 71.382812 51.472656 71.515625 51.535156 71.675781 51.535156 C 71.914062 51.535156 72.089844 51.453125 72.210938 51.292969 C 72.328125 51.132812 72.390625 50.898438 72.390625 50.601562 Z M 72.390625 49.792969 "/>
<path style=" stroke:none;fill-rule:nonzero;fill:rgb(0%,0%,0%);fill-opacity:1;" d="M 27.734375 55.269531 L 27.734375 55.726562 L 26.546875 55.726562 L 26.546875 60.210938 L 26.085938 60.210938 L 26.085938 55.726562 L 24.929688 55.726562 L 24.929688 55.269531 Z M 27.734375 55.269531 "/>
<path style=" stroke:none;fill-rule:nonzero;fill:rgb(0%,0%,0%);fill-opacity:1;" d="M 29.097656 60.210938 L 29.097656 55.269531 L 29.566406 55.269531 L 29.566406 60.210938 Z M 29.097656 60.210938 "/>
<path style=" stroke:none;fill-rule:nonzero;fill:rgb(0%,0%,0%);fill-opacity:1;" d="M 33.023438 55.726562 L 31.316406 55.746094 L 31.316406 57.453125 L 32.945312 57.453125 L 32.945312 57.910156 L 31.316406 57.910156 L 31.316406 59.070312 C 31.316406 59.25 31.378906 59.40625 31.511719 59.546875 C 31.644531 59.683594 31.800781 59.753906 31.984375 59.753906 L 33.023438 59.753906 L 33.023438 60.210938 L 31.984375 60.210938 C 31.78125 60.210938 31.59375 60.160156 31.421875 60.054688 C 31.253906 59.949219 31.117188 59.808594 31.011719 59.632812 C 30.90625 59.457031 30.855469 59.269531 30.855469 59.070312 L 30.855469 55.675781 C 30.855469 55.554688 30.898438 55.457031 30.980469 55.382812 C 31.066406 55.308594 31.160156 55.269531 31.265625 55.269531 L 33.023438 55.269531 Z M 33.023438 55.726562 "/>
<path style=" stroke:none;fill-rule:nonzero;fill:rgb(0%,0%,0%);fill-opacity:1;" d="M 36.605469 59.742188 L 36.5 59.082031 L 36.46875 55.269531 L 36.925781 55.269531 L 36.925781 59.867188 C 36.925781 59.980469 36.894531 60.066406 36.828125 60.125 C 36.761719 60.183594 36.6875 60.210938 36.605469 60.210938 C 36.542969 60.210938 36.484375 60.191406 36.425781 60.152344 C 36.367188 60.113281 36.324219 60.058594 36.296875 59.992188 C 36.121094 59.5625 35.941406 59.105469 35.761719 58.628906 C 35.578125 58.152344 35.394531 57.671875 35.214844 57.1875 C 35.035156 56.703125 34.863281 56.242188 34.691406 55.808594 L 34.785156 56.53125 L 34.785156 60.210938 L 34.335938 60.210938 L 34.335938 55.613281 C 34.328125 55.5 34.359375 55.410156 34.429688 55.34375 C 34.503906 55.28125 34.582031 55.25 34.671875 55.25 C 34.746094 55.25 34.8125 55.273438 34.871094 55.316406 C 34.9375 55.359375 34.976562 55.417969 34.996094 55.496094 L 34.992188 55.484375 Z M 36.605469 59.742188 "/>
<path style=" stroke:none;fill-rule:nonzero;fill:rgb(0%,0%,0%);fill-opacity:1;" d="M 39.664062 55.269531 C 39.859375 55.269531 40.042969 55.324219 40.214844 55.429688 C 40.382812 55.53125 40.519531 55.667969 40.621094 55.839844 C 40.722656 56.011719 40.777344 56.199219 40.777344 56.40625 L 40.777344 59.082031 C 40.777344 59.300781 40.722656 59.492188 40.621094 59.660156 C 40.519531 59.832031 40.382812 59.964844 40.214844 60.066406 C 40.042969 60.164062 39.859375 60.210938 39.664062 60.210938 L 38.554688 60.210938 C 38.433594 60.210938 38.335938 60.171875 38.261719 60.089844 C 38.195312 60.007812 38.160156 59.914062 38.160156 59.808594 L 38.160156 55.664062 C 38.160156 55.550781 38.195312 55.457031 38.273438 55.382812 C 38.347656 55.308594 38.441406 55.269531 38.554688 55.269531 Z M 40.316406 59.082031 L 40.316406 56.414062 C 40.316406 56.234375 40.253906 56.074219 40.121094 55.9375 C 39.992188 55.796875 39.839844 55.726562 39.664062 55.726562 L 38.609375 55.726562 L 38.609375 55.664062 L 38.554688 55.726562 L 38.609375 55.726562 L 38.625 59.753906 L 39.664062 59.753906 C 39.839844 59.753906 39.992188 59.6875 40.121094 59.558594 C 40.253906 59.425781 40.316406 59.265625 40.316406 59.082031 Z M 40.316406 59.082031 "/>
<path style=" stroke:none;fill-rule:nonzero;fill:rgb(0%,0%,0%);fill-opacity:1;" d="M 43.960938 55.554688 L 45.167969 60.210938 L 44.667969 60.210938 L 44.214844 58.472656 L 42.886719 58.472656 C 42.804688 58.78125 42.738281 59.039062 42.683594 59.257812 C 42.625 59.472656 42.578125 59.652344 42.542969 59.804688 C 42.5 59.953125 42.46875 60.089844 42.441406 60.210938 L 41.953125 60.210938 L 43.140625 55.5625 C 43.179688 55.449219 43.238281 55.363281 43.316406 55.304688 C 43.394531 55.246094 43.476562 55.214844 43.558594 55.214844 C 43.636719 55.214844 43.71875 55.246094 43.796875 55.308594 C 43.875 55.367188 43.929688 55.453125 43.960938 55.554688 Z M 42.992188 58.023438 L 44.097656 58.023438 L 43.570312 55.714844 C 43.570312 55.703125 43.574219 55.691406 43.578125 55.679688 L 43.558594 55.652344 L 43.570312 55.714844 Z M 42.992188 58.023438 "/>
<path style=" stroke:none;fill-rule:nonzero;fill:rgb(0%,0%,0%);fill-opacity:1;" d="M 50.226562 55.269531 C 50.421875 55.269531 50.605469 55.324219 50.777344 55.429688 C 50.945312 55.53125 51.082031 55.667969 51.183594 55.839844 C 51.289062 56.011719 51.339844 56.199219 51.339844 56.40625 L 51.339844 59.082031 C 51.339844 59.300781 51.289062 59.492188 51.183594 59.660156 C 51.082031 59.832031 50.945312 59.964844 50.777344 60.066406 C 50.605469 60.164062 50.421875 60.210938 50.226562 60.210938 L 49.117188 60.210938 C 48.996094 60.210938 48.898438 60.171875 48.828125 60.089844 C 48.757812 60.007812 48.722656 59.914062 48.722656 59.808594 L 48.722656 55.664062 C 48.722656 55.550781 48.761719 55.457031 48.835938 55.382812 C 48.910156 55.308594 49.003906 55.269531 49.117188 55.269531 Z M 50.882812 59.082031 L 50.882812 56.414062 C 50.882812 56.234375 50.816406 56.074219 50.683594 55.9375 C 50.558594 55.796875 50.402344 55.726562 50.226562 55.726562 L 49.171875 55.726562 L 49.171875 55.664062 L 49.117188 55.726562 L 49.171875 55.726562 L 49.1875 59.753906 L 50.226562 59.753906 C 50.402344 59.753906 50.558594 59.6875 50.683594 59.558594 C 50.816406 59.425781 50.882812 59.265625 50.882812 59.082031 Z M 50.882812 59.082031 "/>
<path style=" stroke:none;fill-rule:nonzero;fill:rgb(0%,0%,0%);fill-opacity:1;" d="M 54.742188 55.726562 L 53.035156 55.746094 L 53.035156 57.453125 L 54.664062 57.453125 L 54.664062 57.910156 L 53.035156 57.910156 L 53.035156 59.070312 C 53.035156 59.25 53.097656 59.40625 53.230469 59.546875 C 53.363281 59.683594 53.519531 59.753906 53.703125 59.753906 L 54.742188 59.753906 L 54.742188 60.210938 L 53.703125 60.210938 C 53.5 60.210938 53.3125 60.160156 53.140625 60.054688 C 52.972656 59.949219 52.835938 59.808594 52.730469 59.632812 C 52.625 59.457031 52.574219 59.269531 52.574219 59.070312 L 52.574219 55.675781 C 52.574219 55.554688 52.617188 55.457031 52.699219 55.382812 C 52.785156 55.308594 52.878906 55.269531 52.984375 55.269531 L 54.742188 55.269531 Z M 54.742188 55.726562 "/>
<path style=" stroke:none;fill-rule:nonzero;fill:rgb(0%,0%,0%);fill-opacity:1;" d="M 60.332031 58.058594 C 60.488281 58.078125 60.625 58.140625 60.738281 58.246094 C 60.855469 58.347656 60.949219 58.46875 61.015625 58.601562 C 61.082031 58.738281 61.113281 58.867188 61.113281 58.984375 L 61.113281 60.210938 L 60.65625 60.210938 L 60.65625 58.984375 C 60.65625 58.851562 60.613281 58.734375 60.523438 58.632812 C 60.4375 58.527344 60.328125 58.445312 60.203125 58.382812 C 60.078125 58.320312 59.953125 58.289062 59.832031 58.289062 L 59.023438 58.289062 L 59.023438 60.210938 L 58.574219 60.210938 L 58.574219 55.675781 C 58.574219 55.550781 58.609375 55.453125 58.6875 55.378906 C 58.761719 55.304688 58.859375 55.265625 58.976562 55.265625 L 59.964844 55.265625 C 60.179688 55.265625 60.375 55.316406 60.542969 55.414062 C 60.710938 55.515625 60.847656 55.648438 60.945312 55.816406 C 61.042969 55.984375 61.09375 56.179688 61.09375 56.394531 L 61.09375 57.148438 C 61.09375 57.261719 61.058594 57.386719 60.988281 57.523438 C 60.921875 57.660156 60.832031 57.78125 60.71875 57.882812 C 60.605469 57.984375 60.476562 58.039062 60.332031 58.058594 Z M 59.023438 57.832031 L 59.832031 57.832031 C 59.953125 57.832031 60.074219 57.800781 60.199219 57.742188 C 60.324219 57.679688 60.425781 57.597656 60.511719 57.496094 C 60.59375 57.394531 60.636719 57.277344 60.636719 57.148438 L 60.636719 56.394531 C 60.636719 56.210938 60.570312 56.050781 60.445312 55.921875 C 60.316406 55.789062 60.15625 55.722656 59.964844 55.722656 L 59.023438 55.722656 L 59.023438 55.695312 C 59.015625 55.714844 59.003906 55.722656 58.988281 55.722656 L 59.023438 55.722656 Z M 59.023438 57.832031 "/>
<path style=" stroke:none;fill-rule:nonzero;fill:rgb(0%,0%,0%);fill-opacity:1;" d="M 62.269531 56.386719 C 62.269531 56.128906 62.332031 55.914062 62.457031 55.746094 C 62.582031 55.578125 62.746094 55.449219 62.945312 55.363281 C 63.144531 55.273438 63.355469 55.226562 63.570312 55.226562 C 63.789062 55.226562 63.992188 55.273438 64.191406 55.363281 C 64.386719 55.449219 64.550781 55.578125 64.675781 55.746094 C 64.800781 55.914062 64.867188 56.128906 64.867188 56.386719 L 64.867188 59.089844 C 64.867188 59.347656 64.800781 59.566406 64.675781 59.738281 C 64.550781 59.90625 64.386719 60.035156 64.191406 60.125 C 63.992188 60.210938 63.789062 60.253906 63.570312 60.253906 C 63.355469 60.253906 63.144531 60.210938 62.945312 60.125 C 62.746094 60.035156 62.582031 59.90625 62.457031 59.738281 C 62.332031 59.566406 62.269531 59.347656 62.269531 59.089844 Z M 62.71875 59.089844 C 62.71875 59.246094 62.761719 59.375 62.84375 59.476562 C 62.929688 59.582031 63.035156 59.660156 63.164062 59.714844 C 63.292969 59.769531 63.429688 59.796875 63.570312 59.796875 C 63.710938 59.796875 63.847656 59.769531 63.976562 59.714844 C 64.105469 59.660156 64.210938 59.582031 64.289062 59.476562 C 64.367188 59.375 64.40625 59.246094 64.40625 59.089844 L 64.40625 56.386719 C 64.40625 56.230469 64.367188 56.101562 64.289062 56 C 64.210938 55.894531 64.105469 55.816406 63.976562 55.765625 C 63.847656 55.714844 63.710938 55.6875 63.570312 55.6875 C 63.429688 55.6875 63.292969 55.714844 63.164062 55.765625 C 63.035156 55.816406 62.929688 55.894531 62.84375 56 C 62.761719 56.101562 62.71875 56.230469 62.71875 56.386719 Z M 62.71875 59.089844 "/>
<path style=" stroke:none;fill-rule:nonzero;fill:rgb(0%,0%,0%);fill-opacity:1;" d="M 67.515625 55.269531 C 67.714844 55.269531 67.902344 55.324219 68.070312 55.429688 C 68.234375 55.535156 68.367188 55.671875 68.46875 55.84375 C 68.570312 56.019531 68.621094 56.207031 68.621094 56.40625 L 68.621094 57.132812 C 68.621094 57.332031 68.570312 57.519531 68.46875 57.691406 C 68.367188 57.859375 68.234375 58 68.070312 58.101562 C 67.902344 58.210938 67.714844 58.261719 67.515625 58.261719 L 66.550781 58.261719 L 66.550781 60.210938 L 66.101562 60.210938 L 66.101562 55.675781 C 66.101562 55.554688 66.140625 55.457031 66.222656 55.382812 C 66.304688 55.308594 66.394531 55.269531 66.496094 55.269531 Z M 66.550781 57.804688 L 67.515625 57.804688 C 67.691406 57.804688 67.84375 57.738281 67.972656 57.609375 C 68.101562 57.472656 68.164062 57.316406 68.164062 57.132812 L 68.164062 56.40625 C 68.164062 56.222656 68.101562 56.066406 67.972656 55.933594 C 67.84375 55.796875 67.691406 55.726562 67.515625 55.726562 L 66.550781 55.746094 Z M 66.550781 57.804688 "/>
<path style=" stroke:none;fill-rule:nonzero;fill:rgb(0%,0%,0%);fill-opacity:1;" d="M 71.664062 55.554688 L 72.867188 60.210938 L 72.367188 60.210938 L 71.917969 58.472656 L 70.589844 58.472656 C 70.507812 58.78125 70.441406 59.039062 70.386719 59.257812 C 70.328125 59.472656 70.28125 59.652344 70.242188 59.804688 C 70.203125 59.953125 70.171875 60.089844 70.144531 60.210938 L 69.65625 60.210938 L 70.84375 55.5625 C 70.882812 55.449219 70.941406 55.363281 71.019531 55.304688 C 71.097656 55.246094 71.179688 55.214844 71.261719 55.214844 C 71.339844 55.214844 71.421875 55.246094 71.5 55.308594 C 71.578125 55.367188 71.632812 55.453125 71.664062 55.554688 Z M 70.695312 58.023438 L 71.800781 58.023438 L 71.273438 55.714844 C 71.273438 55.703125 71.273438 55.691406 71.28125 55.679688 L 71.261719 55.652344 L 71.273438 55.714844 Z M 70.695312 58.023438 "/>
</g>
</svg>
